<svg aria-hidden="true" style="position:absolute;width:0;height:0;overflow:hidden" xmlns="http://www.w3.org/2000/svg">
	<defs>
<symbol id="icon-flag-of-europe" viewBox="0 0 32 32">
<path fill="#284999" style="fill: var(--color1, #284999)" d="M0.246 5.996h31.508v20.007h-31.508v-20.007z"></path>
<path fill="#ffc943" style="fill: var(--color2, #ffc943)" d="M16.768 9.061l-0.736-0.106-0.33-0.667-0.327 0.667-0.736 0.106 0.532 0.519-0.126 0.734 0.657-0.347 0.66 0.347-0.126-0.734 0.532-0.519z"></path>
<path fill="#ffc943" style="fill: var(--color2, #ffc943)" d="M16.768 21.767l-0.736-0.106-0.33-0.667-0.327 0.667-0.736 0.106 0.532 0.519-0.126 0.734 0.657-0.347 0.66 0.347-0.126-0.734 0.532-0.519z"></path>
<path fill="#ffc943" style="fill: var(--color2, #ffc943)" d="M22.597 16.601l-0.113-0.734 0.539-0.51-0.731-0.118-0.318-0.672-0.342 0.66-0.736 0.094 0.522 0.529-0.138 0.729 0.665-0.332 0.652 0.354z"></path>
<path fill="#ffc943" style="fill: var(--color2, #ffc943)" d="M9.888 16.603l-0.111-0.736 0.542-0.51-0.734-0.118-0.318-0.672-0.34 0.66-0.738 0.094 0.524 0.529-0.14 0.729 0.665-0.335 0.65 0.359z"></path>
<path fill="#ffc943" style="fill: var(--color2, #ffc943)" d="M20.148 10.129l-0.738-0.084-0.352-0.655-0.305 0.677-0.731 0.133 0.549 0.5-0.101 0.736 0.645-0.367 0.67 0.322-0.15-0.726 0.514-0.537z"></path>
<path fill="#ffc943" style="fill: var(--color2, #ffc943)" d="M13.292 20.65l-0.736-0.108-0.327-0.665-0.33 0.665-0.736 0.106 0.532 0.519-0.126 0.734 0.657-0.347 0.657 0.347-0.126-0.731 0.534-0.519z"></path>
<path fill="#ffc943" style="fill: var(--color2, #ffc943)" d="M21.573 19.732l-0.148-0.729 0.517-0.534-0.738-0.086-0.35-0.655-0.308 0.677-0.731 0.128 0.546 0.502-0.103 0.736 0.647-0.367 0.667 0.327z"></path>
<path fill="#ffc943" style="fill: var(--color2, #ffc943)" d="M10.757 13.361l-0.118-0.734 0.537-0.514-0.736-0.113-0.322-0.67-0.335 0.665-0.736 0.098 0.527 0.524-0.13 0.731 0.66-0.34 0.655 0.352z"></path>
<path fill="#ffc943" style="fill: var(--color2, #ffc943)" d="M18.073 21.849l0.65-0.359 0.665 0.335-0.14-0.731 0.524-0.529-0.738-0.091-0.342-0.662-0.315 0.674-0.734 0.121 0.542 0.507-0.111 0.736z"></path>
<path fill="#ffc943" style="fill: var(--color2, #ffc943)" d="M11.646 11.015l0.672-0.32 0.642 0.372-0.096-0.736 0.554-0.497-0.731-0.135-0.3-0.679-0.357 0.652-0.738 0.076 0.51 0.542-0.155 0.726z"></path>
<path fill="#ffc943" style="fill: var(--color2, #ffc943)" d="M21.947 13.59l-0.116-0.734 0.539-0.512-0.734-0.116-0.322-0.67-0.337 0.662-0.736 0.096 0.527 0.527-0.135 0.731 0.662-0.337 0.652 0.352z"></path>
<path fill="#ffc943" style="fill: var(--color2, #ffc943)" d="M10.754 19.562l-0.103-0.736 0.549-0.502-0.734-0.128-0.308-0.677-0.35 0.657-0.738 0.084 0.517 0.534-0.148 0.729 0.67-0.325 0.645 0.364z"></path>
</symbol>
<symbol id="icon-united-states-of-america" viewBox="0 0 32 32">
<path fill="#f0f0f0" style="fill: var(--color3, #f0f0f0)" d="M0 5.333h32v21.334h-32z"></path>
<path fill="#d80027" style="fill: var(--color4, #d80027)" d="M0 8h32v2.666h-32zM0 13.333h32v2.666h-32zM0 18.666h32v2.666h-32zM0 24h32v2.666h-32z"></path>
<path fill="#2e52b2" style="fill: var(--color5, #2e52b2)" d="M0 5.333h16v11.487h-16z"></path>
<path fill="#f0f0f0" style="fill: var(--color3, #f0f0f0)" d="M6.239 10.039l-0.258 0.793h-0.833l0.674 0.49-0.258 0.793 0.674-0.49 0.674 0.49-0.258-0.793 0.674-0.49h-0.834zM6.496 13.693l-0.257-0.793-0.258 0.793h-0.833l0.674 0.49-0.258 0.793 0.674-0.49 0.674 0.49-0.258-0.793 0.674-0.49zM2.974 13.693l-0.257-0.793-0.258 0.793h-0.833l0.674 0.49-0.258 0.793 0.674-0.49 0.674 0.49-0.258-0.793 0.674-0.49zM2.716 10.039l-0.258 0.793h-0.833l0.674 0.49-0.258 0.793 0.674-0.49 0.674 0.49-0.258-0.793 0.674-0.49h-0.833zM6.239 7.178l-0.258 0.793h-0.833l0.674 0.49-0.258 0.793 0.674-0.49 0.674 0.49-0.258-0.793 0.674-0.49h-0.834zM2.716 7.178l-0.258 0.793h-0.833l0.674 0.49-0.258 0.793 0.674-0.49 0.674 0.49-0.258-0.793 0.674-0.49h-0.833zM9.761 10.039l-0.258 0.793h-0.834l0.674 0.49-0.258 0.793 0.674-0.49 0.674 0.49-0.258-0.793 0.674-0.49h-0.834zM10.019 13.693l-0.257-0.793-0.258 0.793h-0.834l0.674 0.49-0.258 0.793 0.674-0.49 0.674 0.49-0.258-0.793 0.674-0.49zM13.541 13.693l-0.257-0.793-0.258 0.793h-0.833l0.674 0.49-0.258 0.793 0.674-0.49 0.674 0.49-0.258-0.793 0.674-0.49zM13.284 10.039l-0.258 0.793h-0.833l0.674 0.49-0.258 0.793 0.674-0.49 0.674 0.49-0.258-0.793 0.674-0.49h-0.834zM9.761 7.178l-0.258 0.793h-0.834l0.674 0.49-0.258 0.793 0.674-0.49 0.674 0.49-0.258-0.793 0.674-0.49h-0.834zM13.284 7.178l-0.258 0.793h-0.833l0.674 0.49-0.258 0.793 0.674-0.49 0.674 0.49-0.258-0.793 0.674-0.49h-0.834z"></path>
</symbol>
<symbol id="icon-ukraine" viewBox="0 0 32 32">
<path fill="#ffda44" style="fill: var(--color6, #ffda44)" d="M0 5.334h32v21.333h-32z"></path>
<path fill="#338af3" style="fill: var(--color7, #338af3)" d="M0 5.334h32v10.666h-32z"></path>
</symbol>
	</defs>
</svg>
